<?xml version="1.0" standalone="no"?><!DOCTYPE svg PUBLIC "-//W3C//DTD SVG 1.1//EN" "http://www.w3.org/Graphics/SVG/1.1/DTD/svg11.dtd"><svg t="1622365488777" class="icon" viewBox="0 0 1024 1024" version="1.1" xmlns="http://www.w3.org/2000/svg" p-id="1150" width="32" height="32" xmlns:xlink="http://www.w3.org/1999/xlink"><defs><style type="text/css"></style></defs><path d="M223.71 982.362H821.2c26.384 0 47.772-21.388 47.772-47.772V117.762c0-26.384-21.388-47.772-47.772-47.772H223.71c-26.384 0-47.772 21.388-47.772 47.772v816.828c0 26.384 21.388 47.772 47.772 47.772z" fill="#69EBFC" p-id="1151"></path><path d="M821.2 69.99H223.708c-26.382 0-47.772 21.388-47.772 47.772v20c0-26.382 21.388-47.772 47.772-47.772H821.2c26.384 0 47.772 21.388 47.772 47.772v-20c0-26.384-21.388-47.772-47.772-47.772z" fill="#A1F1FC" p-id="1152"></path><path d="M821.2 942.362H223.708c-26.382 0-47.772-21.388-47.772-47.772v40c0 26.384 21.388 47.772 47.772 47.772H821.2c26.384 0 47.772-21.388 47.772-47.772v-40c0 26.384-21.388 47.772-47.772 47.772z" fill="#60D6E6" p-id="1153"></path><path d="M261.674 117.96m-21.608 0a21.608 21.608 0 1 0 43.216 0 21.608 21.608 0 1 0-43.216 0Z" fill="#382F8B" p-id="1154"></path><path d="M392.064 117.96m-21.608 0a21.608 21.608 0 1 0 43.216 0 21.608 21.608 0 1 0-43.216 0Z" fill="#382F8B" p-id="1155"></path><path d="M522.454 117.96m-21.608 0a21.608 21.608 0 1 0 43.216 0 21.608 21.608 0 1 0-43.216 0Z" fill="#382F8B" p-id="1156"></path><path d="M652.844 117.96m-21.608 0a21.608 21.608 0 1 0 43.216 0 21.608 21.608 0 1 0-43.216 0Z" fill="#382F8B" p-id="1157"></path><path d="M783.236 117.96m-21.608 0a21.608 21.608 0 1 0 43.216 0 21.608 21.608 0 1 0-43.216 0Z" fill="#382F8B" p-id="1158"></path><path d="M474.736 225.582c33.542-0.348 47.186 22.288 47.186 22.288s13.192-21.94 46.734-22.288 58.882 27.736 59.154 53.898c0.272 26.162-3.604 44.902-51.888 86.01-30.592 26.046-52.382 38.482-52.382 38.482s-22.042-11.982-53.168-37.388c-49.126-40.098-53.388-58.754-53.66-84.916-0.27-26.162 24.482-55.738 58.024-56.086z" fill="#FF8354" p-id="1159"></path><path d="M698.222 504.764H346.686c-11.384 0-20.614-9.23-20.614-20.614s9.23-20.614 20.614-20.614h351.536c11.384 0 20.614 9.23 20.614 20.614 0 11.386-9.228 20.614-20.614 20.614zM698.222 625.172H346.686c-11.384 0-20.614-9.23-20.614-20.614s9.23-20.614 20.614-20.614h351.536c11.384 0 20.614 9.23 20.614 20.614s-9.228 20.614-20.614 20.614zM698.222 745.58H346.686c-11.384 0-20.614-9.23-20.614-20.614s9.23-20.614 20.614-20.614h351.536c11.384 0 20.614 9.23 20.614 20.614s-9.228 20.614-20.614 20.614zM698.222 865.986H346.686c-11.384 0-20.614-9.23-20.614-20.614s9.23-20.614 20.614-20.614h351.536c11.384 0 20.614 9.23 20.614 20.614s-9.228 20.614-20.614 20.614z" fill="#C7FCFE" p-id="1160"></path><path d="M261.674 123.96a12.96 12.96 0 0 1-12.958-12.958V31.32a12.96 12.96 0 0 1 25.916 0v79.684a12.96 12.96 0 0 1-12.958 12.956zM392.064 123.96a12.96 12.96 0 0 1-12.958-12.958V31.32a12.96 12.96 0 0 1 25.916 0v79.684a12.96 12.96 0 0 1-12.958 12.956zM522.454 123.96a12.96 12.96 0 0 1-12.958-12.958V31.32a12.96 12.96 0 0 1 25.916 0v79.684a12.96 12.96 0 0 1-12.958 12.956zM652.844 123.96a12.96 12.96 0 0 1-12.958-12.958V31.32a12.96 12.96 0 0 1 25.916 0v79.684c0 7.154-5.8 12.956-12.958 12.956zM783.236 123.96a12.96 12.96 0 0 1-12.958-12.958V31.32a12.96 12.96 0 0 1 25.916 0v79.684a12.96 12.96 0 0 1-12.958 12.956z" fill="#6770E6" p-id="1161"></path><path d="M261.674 18.362a12.96 12.96 0 0 0-12.958 12.958v20a12.958 12.958 0 1 1 25.916 0v-20a12.96 12.96 0 0 0-12.958-12.958zM392.064 18.362a12.96 12.96 0 0 0-12.958 12.958v20a12.958 12.958 0 1 1 25.916 0v-20a12.96 12.96 0 0 0-12.958-12.958zM522.454 18.362a12.96 12.96 0 0 0-12.958 12.958v20a12.958 12.958 0 1 1 25.916 0v-20a12.96 12.96 0 0 0-12.958-12.958zM652.844 18.362a12.96 12.96 0 0 0-12.958 12.958v20a12.958 12.958 0 1 1 25.916 0v-20a12.96 12.96 0 0 0-12.958-12.958zM783.234 18.362a12.96 12.96 0 0 0-12.958 12.958v20a12.958 12.958 0 1 1 25.916 0v-20a12.96 12.96 0 0 0-12.958-12.958z" fill="#8F95E6" p-id="1162"></path></svg>