<?xml version="1.0" standalone="no"?><!DOCTYPE svg PUBLIC "-//W3C//DTD SVG 1.1//EN" "http://www.w3.org/Graphics/SVG/1.1/DTD/svg11.dtd"><svg t="1622375899562" class="icon" viewBox="0 0 1024 1024" version="1.1" xmlns="http://www.w3.org/2000/svg" p-id="8811" width="128" height="128" xmlns:xlink="http://www.w3.org/1999/xlink"><defs><style type="text/css"></style></defs><path d="M775.984 208h-336a16 16 0 0 1-16-16V144a16 16 0 0 1 16-16h336v80z" fill="#40C4FF" p-id="8812"></path><path d="M216.064 296c-48.512 0-88-39.472-88-88s39.488-88 88-88 88 39.472 88 88-39.488 88-88 88z m0-160c-39.696 0-72 32.304-72 72s32.304 72 72 72 72-32.304 72-72-32.304-72-72-72z" fill="#263238" p-id="8813"></path><path d="M271.536 161.744l5.968-4.96A80 80 0 0 0 136.064 208h7.552a200 200 0 0 0 127.92-46.256z" fill="#FFD740" p-id="8814"></path><path d="M143.632 216h-7.568a8 8 0 0 1-8-8c0-48.528 39.488-88 88-88 26.16 0 50.8 11.536 67.584 31.664a8 8 0 0 1-1.024 11.264l-5.952 4.96h-0.016A208.4 208.4 0 0 1 143.632 216z m72.432-80a72.128 72.128 0 0 0-71.568 64 192.448 192.448 0 0 0 121.392-43.968A71.776 71.776 0 0 0 216.064 136zM216 375.488a8.048 8.048 0 0 1-6.992-4.08L168.96 300a8.16 8.16 0 0 1-1.008-3.904l-0.016-19.264a8.016 8.016 0 0 1 12.048-6.912c22.752 13.328 49.04 13.408 71.936 0.144a8.016 8.016 0 0 1 12.016 6.928l0.016 18.944a7.968 7.968 0 0 1-1.008 3.904l-39.936 71.568a8.048 8.048 0 0 1-7.008 4.08z m-32.064-81.504l32.048 57.12 31.952-57.264v-4.064a85.024 85.024 0 0 1-64-0.096v4.304z" fill="#263238" p-id="8815"></path><path d="M344.064 400a8 8 0 0 1-8-8v-30.256c0-12.512-7.36-23.952-18.752-29.136l-64.704-29.408a8 8 0 0 1 6.624-14.56l64.704 29.408a48.112 48.112 0 0 1 28.128 43.696V392a8 8 0 0 1-8 8zM88 400a8 8 0 0 1-8-8v-30.24c0-18.784 11.04-35.936 28.144-43.696l64.48-29.264a8 8 0 0 1 6.624 14.576l-64.48 29.264A32.032 32.032 0 0 0 96 361.76v30.24a8 8 0 0 1-8 8zM919.984 216h-480c-13.232 0-24-10.768-24-24V144c0-13.232 10.768-24 24-24h480c13.232 0 24 10.768 24 24v48c0 13.232-10.768 24-24 24z m-480-80a8 8 0 0 0-8 8v48a8 8 0 0 0 8 8h480a8 8 0 0 0 8-8V144a8 8 0 0 0-8-8h-480z" fill="#263238" p-id="8816"></path><path d="M775.984 240a8 8 0 0 1-8-8v-128a8 8 0 0 1 16 0v128a8 8 0 0 1-8 8z" fill="#263238" p-id="8817"></path><path d="M695.984 392h-256a16 16 0 0 1-16-16v-48a16 16 0 0 1 16-16h256v80z" fill="#FF5252" p-id="8818"></path><path d="M919.984 400h-480c-13.232 0-24-10.768-24-24v-48c0-13.232 10.768-24 24-24h480c13.232 0 24 10.768 24 24v48c0 13.232-10.768 24-24 24z m-480-80a8 8 0 0 0-8 8v48a8 8 0 0 0 8 8h480a8 8 0 0 0 8-8v-48a8 8 0 0 0-8-8h-480z" fill="#263238" p-id="8819"></path><path d="M695.984 424a8 8 0 0 1-8-8v-128a8 8 0 0 1 16 0v128a8 8 0 0 1-8 8zM695.984 88h-160a8 8 0 0 1 0-16h160a8 8 0 0 1 0 16zM503.984 88h-16a8 8 0 0 1 0-16h16a8 8 0 0 1 0 16z" fill="#263238" p-id="8820"></path><path d="M695.984 712h-256a16 16 0 0 1-16-16v-48a16 16 0 0 1 16-16h256v80z" fill="#40C4FF" p-id="8821"></path><path d="M216.064 800c-48.512 0-88-39.472-88-88s39.488-88 88-88 88 39.472 88 88-39.488 88-88 88z m0-160c-39.696 0-72 32.304-72 72s32.304 72 72 72 72-32.304 72-72-32.304-72-72-72z" fill="#263238" p-id="8822"></path><path d="M271.536 665.744l5.968-4.96a80 80 0 0 0-141.44 51.216h7.552a200 200 0 0 0 127.92-46.256z" fill="#FFD740" p-id="8823"></path><path d="M143.632 720h-7.568a8 8 0 0 1-8-8c0-48.528 39.488-88 88-88 26.16 0 50.8 11.536 67.584 31.664a8 8 0 0 1-1.024 11.264l-5.952 4.96h-0.016A208.4 208.4 0 0 1 143.632 720z m72.432-80a72.128 72.128 0 0 0-71.568 64 192.448 192.448 0 0 0 121.392-43.968A71.776 71.776 0 0 0 216.064 640zM216 879.488a8.048 8.048 0 0 1-6.992-4.08L168.96 804a8.16 8.16 0 0 1-1.008-3.904l-0.016-19.264a8.016 8.016 0 0 1 12.048-6.912c22.752 13.328 49.04 13.408 71.936 0.144a8.016 8.016 0 0 1 12.016 6.928l0.016 18.944a7.968 7.968 0 0 1-1.008 3.904l-39.936 71.568a8.048 8.048 0 0 1-7.008 4.08z m-32.064-81.504l32.048 57.12 31.952-57.264v-4.064a84.944 84.944 0 0 1-64-0.096v4.304z" fill="#263238" p-id="8824"></path><path d="M344.064 904a8 8 0 0 1-8-8v-30.256c0-12.512-7.36-23.952-18.752-29.136l-64.704-29.408a8 8 0 0 1 6.624-14.56l64.704 29.408a48.112 48.112 0 0 1 28.128 43.696V896a8 8 0 0 1-8 8zM88 904A8 8 0 0 1 80 896v-30.24c0-18.784 11.04-35.936 28.144-43.696l64.48-29.264a8 8 0 0 1 6.624 14.576l-64.48 29.264A32.032 32.032 0 0 0 96 865.76V896a8 8 0 0 1-8 8zM919.984 720h-480c-13.232 0-24-10.768-24-24v-48c0-13.232 10.768-24 24-24h480c13.232 0 24 10.768 24 24v48c0 13.232-10.768 24-24 24z m-480-80a8 8 0 0 0-8 8v48a8 8 0 0 0 8 8h480a8 8 0 0 0 8-8v-48a8 8 0 0 0-8-8h-480z" fill="#263238" p-id="8825"></path><path d="M695.984 744a8 8 0 0 1-8-8v-128a8 8 0 0 1 16 0v128a8 8 0 0 1-8 8z" fill="#263238" p-id="8826"></path><path d="M775.984 896h-336a16 16 0 0 1-16-16v-48a16 16 0 0 1 16-16h336v80z" fill="#FF5252" p-id="8827"></path><path d="M919.984 904h-480c-13.232 0-24-10.768-24-24v-48c0-13.232 10.768-24 24-24h480c13.232 0 24 10.768 24 24v48c0 13.232-10.768 24-24 24z m-480-80a8 8 0 0 0-8 8v48a8 8 0 0 0 8 8h480a8 8 0 0 0 8-8v-48a8 8 0 0 0-8-8h-480z" fill="#263238" p-id="8828"></path><path d="M775.984 928a8 8 0 0 1-8-8v-128a8 8 0 0 1 16 0v128a8 8 0 0 1-8 8z" fill="#263238" p-id="8829"></path><path d="M647.984 952h-160a8 8 0 0 1 0-16h160a8 8 0 0 1 0 16z" fill="#263238" p-id="8830"></path><path d="M695.984 952h-16a8 8 0 0 1 0-16h16a8 8 0 0 1 0 16z" fill="#263238" p-id="8831"></path></svg>