<?xml version="1.0" standalone="no"?><!DOCTYPE svg PUBLIC "-//W3C//DTD SVG 1.1//EN" "http://www.w3.org/Graphics/SVG/1.1/DTD/svg11.dtd"><svg t="1622375978112" class="icon" viewBox="0 0 1024 1024" version="1.1" xmlns="http://www.w3.org/2000/svg" p-id="9860" xmlns:xlink="http://www.w3.org/1999/xlink" width="128" height="128"><defs><style type="text/css"></style></defs><path d="M511.997192 512.002702m-286.273286-424.4176a511.940127 511.940127 0 1 0 572.546573 848.8352 511.940127 511.940127 0 1 0-572.546573-848.8352Z" fill="#FFFFFF" p-id="9861"></path><path d="M256.029984 224.845624V256.041975h-61.592797v-31.196351H256.029984z m0 43.194948V464.017652h-61.592797V268.040572H256.029984zM338.420348 268.040572l-0.799907 18.397848c3.999532-7.199158 9.598877-12.798503 15.998129-15.998129s13.59841-5.599345 21.597474-5.599345c10.398784 0 18.397848 2.399719 24.7971 7.199158 6.399252 4.799439 10.398784 11.19869 12.798503 18.397848 1.599813 7.199158 3.199626 19.197755 3.199626 36.795697V464.017652h-59.992983V328.033555c0-13.59841-0.799906-21.597474-1.599813-24.797099s-3.199626-4.799439-7.199158-4.799439-7.199158 1.599813-7.999065 4.799439c-0.799906 3.199626-1.599813 12.798503-1.599813 27.196819V464.017652h-59.992983V268.040572h60.79289zM571.193124 268.040572v151.182319c0 19.997661-0.799906 33.596071-1.599813 39.195416s-3.999532 11.998597-9.598877 19.197754c-5.599345 6.399252-13.59841 11.998597-23.997194 15.198223s-23.197287 5.599345-38.395509 5.599345c-19.197755 0-34.395977-3.199626-45.594668-9.598877-11.19869-6.399252-17.597942-19.197755-17.597941-38.39551h57.593264c0 8.798971 3.199626 12.798503 9.598877 12.798503 4.799439 0 7.199158-1.599813 8.798971-3.999532 1.599813-2.399719 2.399719-7.999064 2.399719-16.798035v-14.398316c-4.799439 4.799439-10.398784 7.999064-15.998129 10.398783-5.599345 2.399719-11.19869 3.199626-17.597941 3.199626-10.398784 0-19.197755-2.399719-26.396913-6.399251-7.199158-3.999532-11.998597-10.398784-14.398316-16.798036-2.399719-7.199158-3.999532-16.798035-3.999532-30.396445v-71.191674c0-18.397848 3.199626-31.996258 10.398783-39.995322s16.798035-11.998597 30.396445-11.998597c7.199158 0 14.398316 1.599813 20.797568 4.799439 6.399252 3.199626 11.998597 7.999064 16.798035 13.598409l3.999533-14.398316h54.393638zM511.200141 320.034491c0-8.798971-0.799906-14.398316-1.599813-16.798035-0.799906-2.399719-3.199626-3.999532-7.199158-3.999533-3.199626 0-5.599345 1.599813-7.199158 3.999533s-2.399719 7.999064-2.39972 16.798035v65.592329c0 8.798971 0.799906 14.398316 1.599813 16.798035 0.799906 2.399719 3.199626 3.999532 6.399252 3.999532 3.999532 0 6.399252-1.599813 7.999064-4.799438 0.799906-3.199626 1.599813-10.398784 1.599813-21.597474V320.034491z" fill="#09C45E" p-id="9862"></path><path d="M631.986014 415.223358V464.017652h-44.794761v-48.794294H631.986014z m55.993452 0V464.017652h-44.794761v-48.794294H687.979466z m55.993451 0V464.017652h-44.794761v-48.794294H743.972917z" fill="#09C45E" p-id="9863"></path><path d="M209.635409 626.398661h604.729276c34.395977 0 63.192609 27.996726 63.192609 63.192609v4.799439c0 34.395977-27.996726 63.192609-63.192609 63.192609H209.635409c-34.395977 0-63.192609-27.996726-63.192609-63.192609v-4.799439c0-35.195884 27.996726-63.192609 63.192609-63.192609z" fill="#09C45E" p-id="9864"></path><path d="M814.364685 771.181728H209.635409c-42.395042 0-76.791019-34.395977-76.791019-76.791019v-4.799439c0-42.395042 34.395977-76.791019 76.791019-76.791019h604.729276c42.395042 0 76.791019 34.395977 76.791019 76.791019v4.799439c0 42.395042-34.395977 76.791019-76.791019 76.791019zM209.635409 639.99707c-27.196819 0-49.5942 22.397381-49.594199 49.5942v4.799439c0 27.196819 22.397381 49.5942 49.594199 49.5942h604.729276c27.196819 0 49.5942-22.397381 49.594199-49.5942v-4.799439c0-27.196819-22.397381-49.5942-49.594199-49.5942H209.635409z" fill="#333333" p-id="9865"></path><path d="M706.377314 639.99707h105.587651c28.796632 0 51.993919 23.197287 51.993919 51.993919s-23.197287 51.993919-51.993919 51.99392H706.377314c-28.796632 0-51.993919-23.197287-51.993919-51.99392s23.197287-51.993919 51.993919-51.993919z" fill="#FFFFFF" p-id="9866"></path><path d="M212.035129 639.99707h495.142091c28.796632 0 51.993919 23.197287 51.99392 51.993919S735.973853 743.984909 707.17722 743.984909H212.035129c-28.796632 0-51.993919-23.197287-51.993919-51.99392s23.197287-51.993919 51.993919-51.993919z" fill="#09C45E" p-id="9867"></path></svg>